<svg width="28" height="28" viewBox="0 0 28 28" fill="none" xmlns="http://www.w3.org/2000/svg">
<rect x="8" y="16" width="4" height="4" fill="#3AD531"/>
<rect x="8" y="8" width="4" height="4" fill="#B0B0B0"/>
<rect x="8" y="16" width="4" height="4" fill="#B0B0B0"/>
<rect x="16" y="8" width="4" height="4" fill="#B0B0B0"/>
<rect x="16" y="16" width="4" height="4" fill="#B0B0B0"/>
<rect x="12" y="12" width="4" height="4" fill="#B0B0B0"/>
<rect x="20" y="20" width="4" height="4" fill="#B0B0B0"/>
<rect x="24" y="24" width="4" height="4" fill="#B0B0B0"/>
<rect x="-4.76837e-07" width="4" height="4" fill="#B0B0B0"/>
<rect x="4" y="4" width="4" height="4" fill="#B0B0B0"/>
<rect x="20" y="8" width="4" height="4" transform="rotate(-90 20 8)" fill="#B0B0B0"/>
<rect x="24" y="4" width="4" height="4" transform="rotate(-90 24 4)" fill="#B0B0B0"/>
<rect x="4.76837e-07" y="28" width="4" height="4" transform="rotate(-90 4.76837e-07 28)" fill="#B0B0B0"/>
<rect x="4" y="24" width="4" height="4" transform="rotate(-90 4 24)" fill="#B0B0B0"/>
</svg>
